<svg width="30" height="30" viewBox="0 0 30 30" fill="none" xmlns="http://www.w3.org/2000/svg">
<path d="M1.51528 0L0 1.51424L2.66934 6.12732L4.40043 5.8736L14.967 16.4341L14.0657 17.299C13.604 17.7604 13.604 18.4592 14.0657 18.9205L14.5342 19.3899C14.9958 19.8512 15.7021 19.8512 16.0483 19.3899L17.4194 20.7589C17.304 21.4508 17.4194 22.2731 17.9964 22.8497L24.2352 29.0486C25.5047 30.3171 27.582 30.3171 28.8515 29.0486C30.3517 27.6646 30.3379 25.5957 29.0684 24.3271L22.8654 18.0913C22.2883 17.5147 21.4655 17.2841 20.7731 17.5147L19.2578 16.1458C19.604 15.6845 19.604 14.9787 19.2578 14.6315L18.825 14.2002C18.7201 14.0909 18.5941 14.0039 18.4547 13.9445C18.3153 13.885 18.1653 13.8544 18.0137 13.8544C17.8621 13.8544 17.7121 13.885 17.5727 13.9445C17.4333 14.0039 17.3073 14.0909 17.2024 14.2002L16.4453 14.9568L5.87877 4.39742L6.13036 2.66751L1.51413 0L1.51528 0ZM24.0194 0.0357514C21.7425 -0.153385 18.7234 1.35509 17.3109 2.66636C15.5729 4.40318 15.8568 6.67397 17.2382 8.86634L14.787 11.317L16.518 13.2626C17.4413 12.4553 18.8031 12.4553 19.7263 13.2626L20.196 13.7308L20.3045 13.8392L21.3143 12.8301C23.4008 14.056 25.5728 14.2325 27.2289 12.5776C28.8445 11.0783 30.5964 7.38092 29.7886 5.18971L26.5433 8.54111C26.0817 9.00242 25.3824 9.00242 24.9207 8.54111L21.5659 5.18971C21.4565 5.08487 21.3694 4.959 21.31 4.81967C21.2505 4.68035 21.2198 4.53044 21.2198 4.37896C21.2198 4.22749 21.2505 4.07758 21.31 3.93825C21.3694 3.79893 21.4565 3.67306 21.5659 3.56822L24.9219 0.216815C24.6334 0.115327 24.3449 0.0634298 24.0194 0.0357514ZM11.3248 14.4159L7.14016 18.5965C6.69049 18.4966 6.23091 18.4483 5.77029 18.4523C2.53893 18.4523 0 20.9895 0 24.2187C0 27.4478 2.53893 29.985 5.77029 29.985C9.00166 29.985 11.5406 27.4478 11.5406 24.2187C11.5406 23.627 11.4471 23.0585 11.2878 22.5245L13.7402 20.0738L13.3802 19.6056C12.4569 18.683 12.4638 17.2852 13.2717 16.3614L11.3236 14.4159H11.3248ZM20.2687 19.6782C20.413 19.6782 20.5492 19.7059 20.6646 19.8224L27.4816 26.6336C27.7124 26.8643 27.7124 27.231 27.4816 27.4617C27.2508 27.6923 26.8815 27.6923 26.6507 27.4617L19.836 20.6504C19.6051 20.4198 19.6051 20.0531 19.836 19.8224C19.9514 19.7071 20.1245 19.6782 20.2687 19.6782ZM6.56429 21.2259L8.76392 23.4252L7.96993 26.4156L4.97746 27.2091L2.77667 25.0098L3.57066 22.0194L6.56429 21.2259V21.2259Z" fill="#F8F8F8"/>
</svg>
