<svg width="31" height="31" viewBox="0 0 31 31" fill="none" xmlns="http://www.w3.org/2000/svg">
<path d="M19.4813 19.7598H30.3617V21.9027H19.4813V19.7598ZM19.4813 24.0455H30.3617V26.1884H19.4813V24.0455ZM19.4813 28.3313H30.3617V30.4741H19.4813V28.3313ZM15.1291 19.7598C14.554 19.7727 13.9822 19.6707 13.4482 19.4599C12.9143 19.2491 12.4293 18.9338 12.0225 18.5333C11.6157 18.1327 11.2956 17.6551 11.0816 17.1293C10.8675 16.6035 10.7639 16.0405 10.7769 15.4741C10.7639 14.9078 10.8675 14.3447 11.0816 13.8189C11.2956 13.2931 11.6157 12.8155 12.0225 12.415C12.4293 12.0144 12.9143 11.6992 13.4482 11.4884C13.9822 11.2776 14.554 11.1755 15.1291 11.1884C15.7042 11.1755 16.276 11.2776 16.81 11.4884C17.3439 11.6992 17.8289 12.0144 18.2357 12.415C18.6425 12.8155 18.9626 13.2931 19.1767 13.8189C19.3907 14.3447 19.4944 14.9078 19.4813 15.4741H21.6574C21.6574 14.2027 21.2745 12.9598 20.5571 11.9026C19.8398 10.8454 18.8202 10.0215 17.6274 9.5349C16.4345 9.04833 15.1219 8.92103 13.8555 9.16907C12.5892 9.41712 11.4259 10.0294 10.5129 10.9284C9.59995 11.8275 8.9782 12.9729 8.7263 14.22C8.47441 15.467 8.60369 16.7596 9.0978 17.9342C9.5919 19.1089 10.4286 20.1129 11.5022 20.8193C12.5758 21.5257 13.8379 21.9027 15.1291 21.9027V19.7598Z" fill="#F8F8F8"/>
<path d="M29.6054 10.1641L27.0377 5.78412C26.7865 5.35448 26.3916 5.02401 25.9206 4.84912C25.4495 4.67424 24.9314 4.66578 24.4547 4.82519L21.8064 5.70805C21.35 5.40547 20.873 5.13411 20.3789 4.89591L19.8305 2.19591C19.7317 1.71033 19.4651 1.27345 19.0761 0.959553C18.6871 0.645656 18.1997 0.474123 17.6968 0.474121H12.5613C12.0582 0.474173 11.5707 0.645858 11.1817 0.959967C10.7927 1.27408 10.5262 1.7112 10.4276 2.19698L9.87926 4.89484C9.37951 5.13078 8.89707 5.40072 8.43543 5.70269L5.80237 4.82519C5.32595 4.66634 4.80833 4.67508 4.33772 4.84994C3.86711 5.0248 3.47264 5.35495 3.22153 5.78412L0.653758 10.1641C0.402215 10.593 0.309306 11.0945 0.390833 11.5832C0.47236 12.0719 0.723289 12.5177 1.10094 12.8448L3.20195 14.663C3.18345 14.933 3.1606 15.2009 3.1606 15.4741C3.1606 15.7505 3.17148 16.0238 3.19107 16.2948L1.10203 18.1034C0.724024 18.4302 0.472678 18.8759 0.390752 19.3647C0.308826 19.8534 0.40138 20.355 0.652669 20.7841L3.22045 25.1641C3.47164 25.5938 3.86647 25.9242 4.33755 26.0991C4.80863 26.274 5.32675 26.2825 5.80346 26.123L8.45175 25.2402C8.90798 25.5433 9.38496 25.8151 9.87926 26.0534L10.4265 28.7513C10.5252 29.2372 10.7918 29.6745 11.181 29.9886C11.5703 30.3027 12.058 30.4743 12.5613 30.4741H15.1291V28.3313H12.5613L11.7888 24.5277C10.7201 24.1368 9.72811 23.567 8.8565 22.8434L5.10602 24.0927L2.53824 19.7127L5.50316 17.1466C5.30031 16.0386 5.29773 14.9041 5.49554 13.7952L2.53824 11.2345L5.10602 6.85555L8.83474 8.09841C9.71257 7.37383 10.7123 6.80599 11.7888 6.42055L12.5613 2.61698H17.6968L18.4693 6.42055C19.538 6.81152 20.53 7.38133 21.4016 8.10483L25.1521 6.85555L27.7199 11.2355L24.6755 13.8627L26.1096 15.4741L29.1561 12.8448C29.5341 12.518 29.7854 12.0723 29.8674 11.5836C29.9493 11.0948 29.8567 10.5932 29.6054 10.1641V10.1641Z" fill="#F8F8F8"/>
</svg>
