<svg width="27" height="32" viewBox="0 0 27 32" fill="none" xmlns="http://www.w3.org/2000/svg">
<path d="M7.79468 17.5V6.25C7.79468 5.65326 8.03443 5.08097 8.4612 4.65901C8.88797 4.23705 9.4668 4 10.0703 4C10.6739 4 11.2527 4.23705 11.6795 4.65901C12.1063 5.08097 12.346 5.65326 12.346 6.25V16M12.346 6.25V3.25C12.346 2.95453 12.4049 2.66195 12.5192 2.38896C12.6336 2.11598 12.8012 1.86794 13.0125 1.65901C13.2238 1.45008 13.4747 1.28434 13.7508 1.17127C14.0269 1.0582 14.3228 1 14.6217 1C14.9205 1 15.2164 1.0582 15.4925 1.17127C15.7686 1.28434 16.0195 1.45008 16.2308 1.65901C16.4421 1.86794 16.6098 2.11598 16.7241 2.38896C16.8385 2.66195 16.8973 2.95453 16.8973 3.25V16M16.8973 6.25C16.8973 5.65326 17.1371 5.08097 17.5639 4.65901C17.9906 4.23705 18.5695 4 19.173 4C19.7765 4 20.3554 4.23705 20.7821 4.65901C21.2089 5.08097 21.4487 5.65326 21.4487 6.25V16" stroke="#F8F8F8" stroke-width="2" stroke-linecap="round" stroke-linejoin="round"/>
<path d="M21.4487 9.24999C21.4487 8.65326 21.6884 8.08096 22.1152 7.659C22.542 7.23705 23.1208 6.99999 23.7243 6.99999C24.3279 6.99999 24.9067 7.23705 25.3335 7.659C25.7602 8.08096 26 8.65326 26 9.24999V22C26 24.3869 25.041 26.6761 23.3339 28.364C21.6268 30.0518 19.3115 31 16.8973 31H13.8631H14.1787C12.6712 31.0002 11.1872 30.6303 9.86005 29.9234C8.53288 29.2165 7.40405 28.1948 6.57492 26.95C6.47542 26.8002 6.3763 26.6502 6.27757 26.5C5.80423 25.7815 4.143 22.918 1.29235 17.908C1.00174 17.3973 0.924117 16.7946 1.07598 16.2282C1.22784 15.6618 1.59721 15.1763 2.10552 14.875C2.64694 14.5538 3.28139 14.4207 3.90809 14.4968C4.53478 14.5729 5.1178 14.8538 5.56453 15.295L7.79468 17.5" stroke="#F8F8F8" stroke-width="2" stroke-linecap="round" stroke-linejoin="round"/>
</svg>
